<?xml version="1.0" encoding="utf-8" ?><svg xmlns="http://www.w3.org/2000/svg" xmlns:xlink="http://www.w3.org/1999/xlink" width="1024" height="1024" viewBox="0 0 1024 1024"><path d="M500.865 399.676C502.2 399.506 503.542 399.399 504.887 399.354C521.483 398.943 537.559 405.167 549.551 416.648C559.157 425.809 575.643 451.048 569.334 466.397C566.433 473.456 551.495 485.948 545.712 492.321C535.229 503.874 521.116 514.453 512.588 528.053C509.043 533.555 508.494 539.765 506.097 545.413C503.677 551.114 500.979 557.119 498.39 562.703C491.348 577.887 484.956 595.07 473.232 607.254C462.535 618.372 444.23 625.497 428.967 625.533C393.254 626.148 364.145 602.58 358.695 566.928C353.839 535.164 370.957 520.148 391.977 499.914C400.492 491.718 409.167 483.112 417.213 474.384C422.426 468.73 424.053 461.078 428.847 455.162C434.319 448.284 440.381 441.828 446.078 435.129C463.915 414.657 473.217 403.404 500.865 399.676ZM465.761 562.123C493.453 558.878 513.278 533.809 510.053 506.114C506.828 478.42 481.772 458.577 454.075 461.783C426.351 464.992 406.485 490.078 409.713 517.8C412.941 545.521 438.041 565.371 465.761 562.123Z"/><path d="M750.159 415.677C751.001 415.56 752.13 415.518 753.004 415.513C785.085 415.34 806.082 445.305 801.368 475.745C800.908 478.713 798.996 484.807 797.381 487.127C790.727 496.682 779.542 506.71 771.391 514.772C761.191 524.922 751.063 535.144 741.007 545.438L741.103 521.315C741.122 508.145 742.495 494.014 732.706 483.357C721.362 471.007 694.225 472.743 691.146 491.784C690.024 498.724 690.525 507.784 690.54 515.065L690.602 545.625C690.702 561.483 693.438 582.7 682.201 594.532C676.41 600.534 668.436 603.935 660.097 603.961C651.638 604.094 643.499 600.733 637.599 594.67C626.675 583.574 627.971 569.623 628.018 555.108L628.029 532.589C642.66 518.412 657.157 504.098 671.517 489.647C677.164 483.944 683.559 477.567 689.008 471.711C692.401 468.066 692.779 458.368 696.986 453.503C700.576 449.351 704.723 445.222 708.258 441.219C722.809 424.741 728.175 418.422 750.159 415.677Z"/><path d="M259.763 415.676C269.811 414.048 284.897 419.715 292.634 426.077C301.345 433.058 306.981 444.374 308.469 455.313C310.239 468.322 296.21 478.104 287.911 486.779C275.538 499.714 261.536 511.497 250.027 525.381C250.195 510.842 253.055 494.084 241.19 483.142C235.356 477.699 227.583 474.826 219.612 475.167C197.44 476.17 200.557 499.169 200.954 515.076C201.373 531.898 200.452 549.247 201.416 565.996C201.29 577.201 199.327 586.197 191.392 594.502C179.091 607.375 158.58 606.995 146.323 594.399C135.351 583.124 136.877 569.894 136.946 555.496L137.05 530.21C141.904 524.524 147.361 520.068 152.371 514.804C166.087 500.391 180.93 486.537 194.496 472.084C201.213 464.927 208.651 452.395 215.228 444.339C229.916 426.348 236.529 418.541 259.763 415.676Z"/><path d="M638.34 415.699C661.729 413.116 685.068 433.382 686.423 456.535C687.051 467.273 681.592 472.659 674.434 479.429C664.577 488.752 655.133 498.097 645.586 507.696C639.605 513.65 633.428 519.048 627.868 525.467C628.228 521.132 628.465 516.787 628.579 512.438C628.973 497.479 627.451 484.459 612.189 477.352C598.131 470.75 579.911 477.116 577.147 493.511C575.566 502.891 576.51 512.345 576.543 521.844L576.497 568.409C576.044 585.764 567.643 600.606 549.276 603.44C541.054 604.784 532.64 602.715 525.979 597.712C518.42 591.999 514.003 583.058 513.093 573.984C512.337 566.45 512.198 541.7 515.436 535.626C526.444 514.973 552.775 494.688 568.855 477.193C575.68 469.766 576.054 462.949 581.526 456.284C585.151 451.869 590.926 446.292 594.951 442.057C609.838 426.389 616.38 418.318 638.34 415.699Z"/><path d="M367.339 415.654C368.062 415.586 368.786 415.535 369.511 415.501C391.116 414.55 410.599 430.088 415.162 451.008C416.207 455.801 416.836 464.943 413.868 468.877C406.429 478.737 396.265 487.645 387.368 496.347C379.76 503.793 372.308 511.397 365.016 519.153C364.687 507.769 366.621 493.756 358.172 484.677C348.712 474.243 330.172 471.289 319.554 481.585C311.191 489.695 313.468 508.965 313.462 520.163L313.543 574.107C311.999 582.207 309.965 588.364 304.221 594.486C292.413 607.069 272.043 607.238 259.811 595.16C248.588 584.077 249.867 570.048 249.916 555.556L249.96 532.135C254.493 526.995 261.53 520.559 266.581 515.583C277.317 505.129 287.904 494.523 298.341 483.771C301.735 480.26 306.623 475.368 309.751 471.751C314.273 466.304 314.492 459.12 319.31 453.682C335.067 435.9 342.313 419.316 367.339 415.654Z"/><path d="M848.157 474.641C865.74 473.228 882.918 483.11 886.677 501.32C889.143 513.443 887.621 526.329 887.777 538.39C888.125 565.199 891.997 596.976 858.133 603.919C849.259 604.595 841.227 603.412 833.653 598.486C826.18 593.625 821.192 586.102 819.388 577.394C817.274 567.186 817.157 513.187 819.037 502.53C819.933 497.454 821.767 492.5 824.67 488.223C830.2 480.073 838.775 476.372 848.157 474.641Z"/><path d="M809.262 481.85L809.7 482.315C810.003 508.747 808.316 537.671 809.312 563.801C810.661 599.235 777.247 615.883 750.636 595.511C739.114 584.086 736.139 567.844 743.03 553.168C745.358 548.208 752.958 540.642 756.819 536.706C774.489 518.688 793.666 501.795 809.262 481.85Z"/><path d="M171.934 415.691C191.969 417.027 206.297 429.54 207.426 450.01C202.964 456.623 190.631 468.586 184.705 474.496C174.703 484.478 164.768 494.528 154.9 504.643C149.909 509.998 141.028 518.256 136.832 523.471C137.769 507.95 137.203 488.284 136.965 472.591C136.527 443.607 136.929 420.582 171.934 415.691Z"/><path d="M852.557 397.179C870.531 395.882 886.185 409.33 887.612 427.295C889.039 445.26 875.704 461.01 857.75 462.567C839.612 464.139 823.664 450.637 822.223 432.488C820.782 414.339 834.398 398.49 852.557 397.179Z"/></svg>